<svg id="Layer_1" data-name="Layer 1" xmlns="http://www.w3.org/2000/svg" viewBox="0 0 445 188">
  <defs>
    <style>
      .cls-1 {
        fill: #ed9248;
      }

      .cls-2, .cls-4 {
        fill: none;
        stroke-miterlimit: 10;
        stroke-width: 2px;
      }

      .cls-2 {
        stroke: #ed9248;
      }

      .cls-3 {
        fill: #be4327;
      }

      .cls-4 {
        stroke: #be4327;
      }
    </style>
  </defs>
  <title>babushka</title>
  <g>
    <g>
      <path d="M137.27,70.13q0-4-.15-7.8t-.33-7.68q1.56.12,3.18.21t3.18.09q1.56,0,3.18-.15t3.18-.15a28.83,28.83,0,0,1,4.86.39,12.24,12.24,0,0,1,4,1.38,7.52,7.52,0,0,1,2.76,2.67,8,8,0,0,1,1,4.2,8.9,8.9,0,0,1-2.79,7,15.88,15.88,0,0,1-7.29,3.54v.12a14.8,14.8,0,0,1,8.43,2.58q3.09,2.34,3.09,7.5a10.71,10.71,0,0,1-1.38,5.64,11.14,11.14,0,0,1-3.6,3.69,14.8,14.8,0,0,1-4.89,2,25.37,25.37,0,0,1-5.31.57q-1.44,0-2.91-.06c-1,0-2-.06-2.91-.06H139.7q-1.47,0-2.91.12.18-3.84.33-7.65t.15-7.77Zm8.16,2.94a20.92,20.92,0,0,0,4.17-.42,11.34,11.34,0,0,0,3.69-1.41,7.67,7.67,0,0,0,2.61-2.64,8,8,0,0,0,1-4.17,7.47,7.47,0,0,0-.9-3.93,6.55,6.55,0,0,0-2.28-2.28,8.75,8.75,0,0,0-3.12-1.08,22.66,22.66,0,0,0-3.48-.27q-1.56,0-2.64.09t-1.92.21q-.12,2.88-.24,5.7t-.12,5.7v4.5Zm-3.24,8.34q0,3.06.12,6.06t.24,6.06q1.14.12,2.7.21t3.18.09a10.48,10.48,0,0,0,3.69-.66,8.73,8.73,0,0,0,3.09-2,9.39,9.39,0,0,0,2.1-3.18,11.16,11.16,0,0,0,.78-4.29,8.55,8.55,0,0,0-.93-4.23,6.51,6.51,0,0,0-2.67-2.58,12.78,12.78,0,0,0-4.17-1.29,37.26,37.26,0,0,0-5.43-.36h-2.7Z"/>
      <path d="M173.33,56.93a3.07,3.07,0,1,1,.9,2.16A2.95,2.95,0,0,1,173.33,56.93Zm.84,21.66q0-2.7-.09-5.67t-.39-5.55a12.3,12.3,0,0,0,5.4,0q-.3,2.58-.39,5.55t-.09,5.67v6.24q0,2.7.09,5.67t.39,5.37q-1.38-.12-2.7-.12t-2.7.12q.3-2.4.39-5.37t.09-5.67Z"/>
      <path d="M189.92,91.61a9,9,0,0,0,1.5,1.35,8.46,8.46,0,0,0,2,1.05,6.87,6.87,0,0,0,4.56.06,6,6,0,0,0,1.86-1,4.72,4.72,0,0,0,1.29-1.68,5.44,5.44,0,0,0,.48-2.34,3.73,3.73,0,0,0-1.05-2.85,8.27,8.27,0,0,0-2.61-1.62,27.47,27.47,0,0,0-3.42-1.11,14.35,14.35,0,0,1-3.42-1.35,8,8,0,0,1-2.61-2.31,6.6,6.6,0,0,1-1-4,9.69,9.69,0,0,1,.66-3.63A8,8,0,0,1,190,69.35a9,9,0,0,1,3.12-1.89,12.2,12.2,0,0,1,4.26-.69,10.31,10.31,0,0,1,3.75.6q1.53.6,2.91,1.08a13.39,13.39,0,0,0-.9,2.22,15.94,15.94,0,0,0-.54,2h-.72A5.69,5.69,0,0,0,200,70.13,5.19,5.19,0,0,0,196.61,69a5.66,5.66,0,0,0-1.8.3,5,5,0,0,0-1.62.9,4.77,4.77,0,0,0-1.2,1.56,5,5,0,0,0-.48,2.28,4,4,0,0,0,1.05,3,7.38,7.38,0,0,0,2.61,1.65,27.65,27.65,0,0,0,3.42,1A15.09,15.09,0,0,1,202,81a7.43,7.43,0,0,1,2.61,2.25,6.6,6.6,0,0,1,1,4,8.31,8.31,0,0,1-.75,3.42,9.59,9.59,0,0,1-2.16,3,9.91,9.91,0,0,1-3.39,2.1,12.64,12.64,0,0,1-4.5.75,16.83,16.83,0,0,1-4.62-.54,14.43,14.43,0,0,1-3.12-1.26,15.62,15.62,0,0,0,.75-2.13,8.41,8.41,0,0,0,.39-2.25H189A6.47,6.47,0,0,0,189.92,91.61Z"/>
      <path d="M218.09,59.33q-.18,2.28-.27,4.47t-.21,4.41l2.46,0q1.8,0,3.9-.15a2.41,2.41,0,0,0-.06.66V70a2.11,2.11,0,0,0,.06.6q-.78-.06-1.62-.09t-1.8,0h-2.94q-.06.24-.15,1.92t-.15,4q-.06,2.31-.09,4.83t0,4.5q0,1.68.09,3.3a9.89,9.89,0,0,0,.57,2.91A4.72,4.72,0,0,0,219.29,94a4.28,4.28,0,0,0,2.76.78,9.29,9.29,0,0,0,1.29-.12,10.12,10.12,0,0,0,1.41-.3v1.44q-1,.18-2.25.45a11,11,0,0,1-2.37.27q-3.78,0-5.58-1.86a7.55,7.55,0,0,1-1.8-5.46q0-1.62.06-3.51T213,81.5q.09-2.25.15-5t.06-6.09h-1.92l-1,0-1.14.09q.06-.36.09-.69t0-.69q0-.3,0-.6t-.09-.6q2.7.18,4,.18-.06-1.2-.09-3t-.15-3.72l5-2.1Z"/>
      <path d="M241.88,71.63a5.39,5.39,0,0,0-1.77-.3,5.05,5.05,0,0,0-2.58.66,6,6,0,0,0-1.92,1.77,8.43,8.43,0,0,0-1.2,2.64,12.31,12.31,0,0,0-.42,3.27v6.6q0,4,0,6.15a29.65,29.65,0,0,0,.21,3.45q-1.2-.12-2.4-.12t-2.52.12q.18-2,.21-5.55t0-8.61V79.79q0-2.34,0-5.4t-.21-7l1.26.21a8.49,8.49,0,0,0,1.26.09,7.7,7.7,0,0,0,1.14-.09l1.26-.21q-.24,2.16-.27,3.42t0,2.4l.12.06q3.54-6.48,7.92-6.48a6.22,6.22,0,0,1,.93.06,4.75,4.75,0,0,1,1,.3,6.75,6.75,0,0,0-.36,2.19q-.06,1.47-.06,2.67l-.42.3A2.68,2.68,0,0,0,241.88,71.63Z"/>
      <path d="M246.83,81.71a16.75,16.75,0,0,1,1.29-6.93,12.85,12.85,0,0,1,3.39-4.62,13.4,13.4,0,0,1,4.71-2.58,17.13,17.13,0,0,1,10.41,0,13.45,13.45,0,0,1,4.68,2.58,12.85,12.85,0,0,1,3.39,4.62A16.75,16.75,0,0,1,276,81.71a16.75,16.75,0,0,1-1.29,6.93,12.85,12.85,0,0,1-3.39,4.62,12.34,12.34,0,0,1-4.68,2.49,19.17,19.17,0,0,1-10.41,0,12.31,12.31,0,0,1-4.71-2.49,12.85,12.85,0,0,1-3.39-4.62A16.75,16.75,0,0,1,246.83,81.71Zm5.28,0a25.69,25.69,0,0,0,.45,4.86,12.94,12.94,0,0,0,1.53,4.17A8.19,8.19,0,0,0,257,93.65a9.67,9.67,0,0,0,8.88,0,8.19,8.19,0,0,0,2.88-2.91,12.94,12.94,0,0,0,1.53-4.17,26.47,26.47,0,0,0,0-9.72,12.94,12.94,0,0,0-1.53-4.17,8.19,8.19,0,0,0-2.88-2.91,9.67,9.67,0,0,0-8.88,0,8.19,8.19,0,0,0-2.88,2.91,12.94,12.94,0,0,0-1.53,4.17A25.69,25.69,0,0,0,252.11,81.71Z"/>
    </g>
    <g>
      <path d="M202.4,120.08q0-4-.15-7.8t-.33-7.68q1.56.12,3.18.21t3.18.09q1.56,0,3.18-.15t3.18-.15a28.83,28.83,0,0,1,4.86.39,12.24,12.24,0,0,1,4,1.38,7.52,7.52,0,0,1,2.76,2.67,8,8,0,0,1,1,4.2,8.9,8.9,0,0,1-2.79,7,15.88,15.88,0,0,1-7.29,3.54v.12a14.8,14.8,0,0,1,8.43,2.58q3.09,2.34,3.09,7.5a10.71,10.71,0,0,1-1.38,5.64,11.14,11.14,0,0,1-3.6,3.69,14.8,14.8,0,0,1-4.89,2,25.37,25.37,0,0,1-5.31.57q-1.44,0-2.91-.06t-2.91-.06h-2.91q-1.47,0-2.91.12.18-3.84.33-7.65t.15-7.77Zm8.16,2.94a20.92,20.92,0,0,0,4.17-.42,11.34,11.34,0,0,0,3.69-1.41,7.67,7.67,0,0,0,2.61-2.64,8,8,0,0,0,1-4.17,7.47,7.47,0,0,0-.9-3.93,6.55,6.55,0,0,0-2.28-2.28,8.75,8.75,0,0,0-3.12-1.08,22.66,22.66,0,0,0-3.48-.27q-1.56,0-2.64.09t-1.92.21q-.12,2.88-.24,5.7t-.12,5.7V123Zm-3.24,8.34q0,3.06.12,6.06t.24,6.06q1.14.12,2.7.21t3.18.09a10.48,10.48,0,0,0,3.69-.66,8.73,8.73,0,0,0,3.09-2,9.39,9.39,0,0,0,2.1-3.18,11.16,11.16,0,0,0,.78-4.29,8.55,8.55,0,0,0-.93-4.23,6.51,6.51,0,0,0-2.67-2.58,12.78,12.78,0,0,0-4.17-1.29,37.26,37.26,0,0,0-5.43-.36h-2.7Z"/>
      <path d="M238.34,120.2a17,17,0,0,1,5-2.76,15.45,15.45,0,0,1,4.68-.72,11.92,11.92,0,0,1,4,.63,8.61,8.61,0,0,1,3.06,1.8,8.36,8.36,0,0,1,2,2.82,9,9,0,0,1,.72,3.63q0,3.42-.12,6.81t-.12,7.17q0,.72,0,1.53a4.5,4.5,0,0,0,.27,1.44,2.75,2.75,0,0,0,.69,1,1.92,1.92,0,0,0,1.35.42l.63,0a1.47,1.47,0,0,0,.63-.21v1.32a7.1,7.1,0,0,1-1.65.48,12.28,12.28,0,0,1-2.19.18,3.77,3.77,0,0,1-4.14-3.54,16.13,16.13,0,0,1-4.26,3.18,11.75,11.75,0,0,1-5.16,1,10.45,10.45,0,0,1-2.94-.42,6.73,6.73,0,0,1-2.55-1.38,7.58,7.58,0,0,1-1.8-2.31,6.7,6.7,0,0,1-.69-3.09,7,7,0,0,1,2.25-5.58,12.25,12.25,0,0,1,6.21-2.64q3.24-.54,5.07-.93a12.74,12.74,0,0,0,2.7-.81,1.83,1.83,0,0,0,1-1,5,5,0,0,0,.18-1.47,11.36,11.36,0,0,0-.36-2.88,6.67,6.67,0,0,0-1.14-2.4,5.76,5.76,0,0,0-2-1.65,6.79,6.79,0,0,0-3.06-.63,9.52,9.52,0,0,0-4.47,1.08,7.12,7.12,0,0,0-3.09,3h-.66Zm14.82,10.68a15.12,15.12,0,0,1-2.37.6l-2.73.51a26,26,0,0,0-2.73.69,8.87,8.87,0,0,0-2.4,1.14,5.55,5.55,0,0,0-1.68,1.8,6.39,6.39,0,0,0,1,7,5.29,5.29,0,0,0,3.6,1.44,7.36,7.36,0,0,0,4.17-1.26,9.46,9.46,0,0,0,2.91-2.94Z"/>
      <path d="M294,130.82a18.45,18.45,0,0,1-1,6.36,15.29,15.29,0,0,1-2.88,4.95,12.5,12.5,0,0,1-4.32,3.18,13,13,0,0,1-5.37,1.11,10.87,10.87,0,0,1-5.19-1.23,9.66,9.66,0,0,1-3.51-3q-2.16,1.74-4,3.48H266.6q.12-1.44.21-3.48t.15-4.35q.06-2.31.09-4.71t0-4.44V117.86q0-2,0-4.44t-.09-4.74q-.06-2.34-.15-4.47t-.21-3.63a16.15,16.15,0,0,0,2.7.3,11.14,11.14,0,0,0,1.38-.09l1.56-.21q-.18,1.2-.3,3.81t-.18,5.82q-.06,3.21-.12,6.6t-.12,6.15h.12a14.33,14.33,0,0,1,4.5-4.74,10.73,10.73,0,0,1,5.7-1.5,11.69,11.69,0,0,1,5.4,1.17A11.23,11.23,0,0,1,291,121a13.25,13.25,0,0,1,2.25,4.47A18.94,18.94,0,0,1,294,130.82Zm-5.28-.18a15.86,15.86,0,0,0-.69-4.89,11.71,11.71,0,0,0-1.8-3.57,7.63,7.63,0,0,0-2.58-2.19,6.59,6.59,0,0,0-3-.75,9.45,9.45,0,0,0-3.57.69,7.21,7.21,0,0,0-3,2.28,12.11,12.11,0,0,0-2,4.14,22.51,22.51,0,0,0-.75,6.27q0,12.06,8.76,12.06a6.26,6.26,0,0,0,3.42-1,8.91,8.91,0,0,0,2.73-2.85,15.52,15.52,0,0,0,1.83-4.44A23.26,23.26,0,0,0,288.74,130.64Z"/>
      <path d="M301.1,136.76q0-3.18.09-5.43t.09-4.47q0-2.1,0-4.56t-.09-5a13.25,13.25,0,0,0,2.52.3,13.07,13.07,0,0,0,2.46-.3q-.3,3.6-.45,7.89t-.15,8.79a16.16,16.16,0,0,0,.54,4.77,6.24,6.24,0,0,0,3.45,4.08,6.83,6.83,0,0,0,3,.63,7.46,7.46,0,0,0,4.2-1.11,6.81,6.81,0,0,0,2.46-2.73q.42-1,.66-1.74a10.33,10.33,0,0,0,.39-1.92,31.14,31.14,0,0,0,.18-3.24q0-2,0-5.58v-5q0-1.32,0-2.52t-.09-2.28l1.26.21a8.87,8.87,0,0,0,2.52,0q.6-.09,1.2-.21-.3,4.68-.36,9t-.06,9.21q0,2.7.06,5.28t.18,5q-1.2-.12-2.34-.12t-2.34.12q.06-.54.09-1.14t0-1.26v-2.58h-.12a10.17,10.17,0,0,1-4,4.23,10.92,10.92,0,0,1-5.34,1.35,10.35,10.35,0,0,1-7.35-2.49Q301.1,141.44,301.1,136.76Z"/>
      <path d="M335.09,141.56a9,9,0,0,0,1.5,1.35,8.46,8.46,0,0,0,2,1.05,6.87,6.87,0,0,0,4.56.06,6,6,0,0,0,1.86-1,4.72,4.72,0,0,0,1.29-1.68,5.44,5.44,0,0,0,.48-2.34,3.73,3.73,0,0,0-1.05-2.85,8.27,8.27,0,0,0-2.61-1.62,27.47,27.47,0,0,0-3.42-1.11,14.35,14.35,0,0,1-3.42-1.35,8,8,0,0,1-2.61-2.31,6.6,6.6,0,0,1-1-4,9.69,9.69,0,0,1,.66-3.63,8,8,0,0,1,1.92-2.85,9,9,0,0,1,3.12-1.89,12.2,12.2,0,0,1,4.26-.69,10.31,10.31,0,0,1,3.75.6q1.53.6,2.91,1.08a13.39,13.39,0,0,0-.9,2.22,15.94,15.94,0,0,0-.54,2h-.72a5.69,5.69,0,0,0-1.86-2.58,5.19,5.19,0,0,0-3.42-1.14,5.66,5.66,0,0,0-1.8.3,5,5,0,0,0-1.62.9,4.77,4.77,0,0,0-1.2,1.56,5,5,0,0,0-.48,2.28,4,4,0,0,0,1.05,3,7.38,7.38,0,0,0,2.61,1.65,27.65,27.65,0,0,0,3.42,1.05,15.09,15.09,0,0,1,3.42,1.26,7.43,7.43,0,0,1,2.61,2.25,6.6,6.6,0,0,1,1,4,8.31,8.31,0,0,1-.75,3.42,9.59,9.59,0,0,1-2.16,3,9.91,9.91,0,0,1-3.39,2.1,12.64,12.64,0,0,1-4.5.75,16.83,16.83,0,0,1-4.62-.54,14.43,14.43,0,0,1-3.12-1.26,15.62,15.62,0,0,0,.75-2.13,8.41,8.41,0,0,0,.39-2.25h.72A6.47,6.47,0,0,0,335.09,141.56Z"/>
      <path d="M358.25,113.42q0-2.4-.09-4.74t-.15-4.47q-.09-2.13-.21-3.63a12.3,12.3,0,0,0,5.4,0q-.12,1.5-.21,3.6t-.15,4.41q-.06,2.31-.09,4.65t0,4.32v4.56h.12a12.53,12.53,0,0,1,4-4,10.61,10.61,0,0,1,5.58-1.41,12.5,12.5,0,0,1,3.39.48,8.12,8.12,0,0,1,3.09,1.65,8.51,8.51,0,0,1,2.25,3.18,13,13,0,0,1,.87,5.13q0,2.58-.12,5.31t-.12,5.79v3.9q0,1,0,1.89t.09,1.77q-1.2-.12-2.52-.12t-2.46.12q.12-3.12.27-6.42t.15-6.78V129q0-4.5-1.74-6.81a5.68,5.68,0,0,0-4.8-2.31q-4.2,0-6.15,2.58t-1.95,7.26q0,1.68,0,3.9t.09,4.47q.06,2.25.15,4.35t.21,3.42q-1.38-.12-2.7-.12t-2.7.12q.12-1.38.21-3.48t.15-4.44q.06-2.34.09-4.74t0-4.44V117.86Q358.28,115.82,358.25,113.42Z"/>
      <path d="M391.61,113.42q0-2.4-.09-4.74t-.15-4.47q-.09-2.13-.21-3.63a12.3,12.3,0,0,0,5.4,0q-.12,1.5-.21,3.63t-.15,4.47q-.06,2.34-.09,4.74t0,4.44v10.92q0,1.14.72,1.14a1.82,1.82,0,0,0,1.05-.42l1.29-1q.54-.42,1.83-1.62t2.88-2.79q1.59-1.59,3.27-3.39t3.06-3.42a9.41,9.41,0,0,0,2.28.3,9.76,9.76,0,0,0,1.32-.09l1.68-.21q-3.78,3.06-7.23,6t-6.57,6q3.42,4.14,7,8.28t7.41,8.16a15.82,15.82,0,0,0-1.83-.12h-3a11.46,11.46,0,0,0-1.62.12q-1.32-1.5-3-3.51l-3.33-4q-1.65-2-3.15-3.72t-2.58-2.88a2.09,2.09,0,0,0-.42-.42.8.8,0,0,0-.48-.18q-.6,0-.6.72v3.6q0,2.7.09,5.25t.39,5.13q-1.38-.12-2.7-.12t-2.7.12q.12-1.38.21-3.48t.15-4.44q.06-2.34.09-4.74t0-4.44V117.86Q391.64,115.82,391.61,113.42Z"/>
      <path d="M421.76,120.2a17,17,0,0,1,5-2.76,15.45,15.45,0,0,1,4.68-.72,11.92,11.92,0,0,1,4,.63,8.61,8.61,0,0,1,3.06,1.8,8.36,8.36,0,0,1,2,2.82,9,9,0,0,1,.72,3.63q0,3.42-.12,6.81t-.12,7.17q0,.72,0,1.53a4.5,4.5,0,0,0,.27,1.44,2.75,2.75,0,0,0,.69,1,1.92,1.92,0,0,0,1.35.42l.63,0a1.47,1.47,0,0,0,.63-.21v1.32a7.1,7.1,0,0,1-1.65.48,12.28,12.28,0,0,1-2.19.18,3.77,3.77,0,0,1-4.14-3.54,16.13,16.13,0,0,1-4.26,3.18,11.75,11.75,0,0,1-5.16,1,10.45,10.45,0,0,1-2.94-.42,6.73,6.73,0,0,1-2.55-1.38,7.58,7.58,0,0,1-1.8-2.31,6.7,6.7,0,0,1-.69-3.09,7,7,0,0,1,2.25-5.58,12.25,12.25,0,0,1,6.21-2.64q3.24-.54,5.07-.93a12.74,12.74,0,0,0,2.7-.81,1.83,1.83,0,0,0,1-1,5,5,0,0,0,.18-1.47,11.36,11.36,0,0,0-.36-2.88,6.67,6.67,0,0,0-1.14-2.4,5.76,5.76,0,0,0-2-1.65,6.79,6.79,0,0,0-3.06-.63,9.52,9.52,0,0,0-4.47,1.08,7.12,7.12,0,0,0-3.09,3h-.66Zm14.82,10.68a15.12,15.12,0,0,1-2.37.6l-2.73.51a26,26,0,0,0-2.73.69,8.87,8.87,0,0,0-2.4,1.14,5.55,5.55,0,0,0-1.68,1.8,6.39,6.39,0,0,0,1,7,5.29,5.29,0,0,0,3.6,1.44,7.36,7.36,0,0,0,4.17-1.26,9.46,9.46,0,0,0,2.91-2.94Z"/>
    </g>
    <g>
      <g>
        <path class="cls-1" d="M94.17,6.9s3.62,6.58,2.23,13.51-7,11.66-7,11.66S85.5,25.44,86.9,18.51,94.17,6.9,94.17,6.9Z"/>
        <g>
          <path class="cls-1" d="M96,113.77s-1.71,10.71-9.45,17.38-18.34,7-18.34,7,1.46-11,9.2-17.66S96,113.77,96,113.77Z"/>
          <path class="cls-1" d="M53,105.42s9,4.93,12.55,14S66,138,66,138s-9.37-4.8-12.88-13.84S53,105.42,53,105.42Z"/>
        </g>
        <g>
          <path class="cls-1" d="M98,94.57s-1.58,9.92-8.75,16.1-17,6.53-17,6.53S73.63,107,80.8,100.85,98,94.57,98,94.57Z"/>
          <path class="cls-1" d="M58.14,86.84s8.38,4.57,11.62,12.94.45,17.27.45,17.27-8.67-4.44-11.92-12.82S58.14,86.84,58.14,86.84Z"/>
        </g>
        <g>
          <path class="cls-1" d="M102,75.32s-1.53,9.59-8.46,15.56S77.12,97.2,77.12,97.2s1.31-9.84,8.24-15.82S102,75.32,102,75.32Z"/>
          <path class="cls-1" d="M63.46,67.84s8.09,4.41,11.24,12.51.43,16.71.43,16.71-8.39-4.3-11.53-12.4S63.46,67.84,63.46,67.84Z"/>
        </g>
        <g>
          <path class="cls-1" d="M104,57.81s-1.42,8.94-7.88,14.5S80.82,78.2,80.82,78.2,82,69,88.5,63.46,104,57.81,104,57.81Z"/>
          <path class="cls-1" d="M68.08,50.84S75.63,55,78.56,62.5s.4,15.57.4,15.57-7.82-4-10.74-11.56S68.08,50.84,68.08,50.84Z"/>
        </g>
        <g>
          <path class="cls-1" d="M105,43S103.74,51,98,56,84.36,61.2,84.36,61.2,85.45,53,91.2,48.08,105,43,105,43Z"/>
          <path class="cls-1" d="M73,36.84s6.72,3.66,9.33,10.38.36,13.86.36,13.86-7-3.57-9.57-10.29S73,36.84,73,36.84Z"/>
        </g>
        <g>
          <path class="cls-1" d="M107,28.89s-1.21,7.59-6.69,12.31-13,5-13,5,1-7.78,6.52-12.51S107,28.89,107,28.89Z"/>
          <path class="cls-1" d="M76.52,23s6.4,3.49,8.89,9.9.34,13.21.34,13.21-6.64-3.4-9.12-9.81S76.52,23,76.52,23Z"/>
        </g>
        <path class="cls-2" d="M65.49,141.84c0,4.21-9,32.39-34,45"/>
        <rect class="cls-1" x="93.54" y="109.95" width="12.59" height="1.4" rx="0.5" transform="translate(-48.04 92.05) rotate(-40.77)"/>
        <rect class="cls-1" x="45.54" y="102.95" width="12.59" height="1.4" rx="0.5" transform="matrix(-0.5, -0.87, 0.87, -0.5, -12.02, 200.36)"/>
        <rect class="cls-1" x="94.83" y="91.75" width="10.71" height="1.19" rx="0.5" transform="translate(-35.99 87.84) rotate(-40.77)"/>
        <rect class="cls-1" x="98.98" y="73.15" width="9.78" height="1.09" rx="0.5" transform="translate(-22.92 85.72) rotate(-40.77)"/>
        <rect class="cls-1" x="99.97" y="57.12" width="9.78" height="1.11" rx="0.5" transform="translate(-12.22 82.48) rotate(-40.77)"/>
        <rect class="cls-1" x="102.13" y="41.56" width="8.74" height="1" rx="0.5" transform="translate(-1.62 79.76) rotate(-40.77)"/>
        <rect class="cls-1" x="102.05" y="28.35" width="9.39" height="1" rx="0.5" transform="translate(7.07 76.72) rotate(-40.77)"/>
        <rect class="cls-1" x="90.05" y="4.35" width="9.39" height="1" rx="0.5" transform="translate(68.41 95.99) rotate(-76.81)"/>
        <rect class="cls-1" x="72.05" y="23.35" width="9.39" height="1" rx="0.5" transform="translate(94.47 102.24) rotate(-120)"/>
        <rect class="cls-1" x="68.05" y="36.35" width="9.39" height="1" rx="0.5" transform="translate(77.21 118.27) rotate(-120)"/>
        <rect class="cls-1" x="63.05" y="50.35" width="9.39" height="1" rx="0.5" transform="translate(57.59 134.94) rotate(-120)"/>
        <rect class="cls-1" x="58.05" y="66.35" width="9.39" height="1" rx="0.5" transform="translate(36.23 154.61) rotate(-120)"/>
        <rect class="cls-1" x="52.05" y="84.35" width="9.39" height="1" rx="0.5" transform="translate(11.64 176.42) rotate(-120)"/>
      </g>
      <g>
        <path class="cls-3" d="M12,27.79s4.33,4,5,9.46a18,18,0,0,1-2.28,10.4s-4.53-3.94-5.24-9.43S12,27.79,12,27.79Z"/>
        <path class="cls-3" d="M40.18,106.55s1.42,8.36-2.65,15.25-11.82,9.82-11.82,9.82S24,123.11,28.1,116.23,40.18,106.55,40.18,106.55Z"/>
        <path class="cls-3" d="M6.18,111.15s7.93,1.39,12.8,7.21,5,13.7,5,13.7-8.15-1.21-13-7S6.18,111.15,6.18,111.15Z"/>
        <g>
          <path class="cls-3" d="M36.85,91.82s1.31,7.74-2.45,14.12S23.45,115,23.45,115s-1.55-7.88,2.21-14.26S36.85,91.82,36.85,91.82Z"/>
          <path class="cls-3" d="M5.36,96.08s7.35,1.28,11.86,6.68,4.66,12.69,4.66,12.69-7.54-1.12-12-6.52S5.36,96.08,5.36,96.08Z"/>
        </g>
        <g>
          <path class="cls-3" d="M35,76.54S36.26,84,32.62,90.2,22,99,22,99s-1.5-7.62,2.14-13.79S35,76.54,35,76.54Z"/>
          <path class="cls-3" d="M4.54,80.67s7.1,1.24,11.46,6.45,4.51,12.27,4.51,12.27S13.22,98.31,8.86,93.1,4.54,80.67,4.54,80.67Z"/>
        </g>
        <g>
          <path class="cls-3" d="M32.08,63.06s1.19,7-2.21,12.73S20,84,20,84s-1.39-7.1,2-12.85S32.08,63.06,32.08,63.06Z"/>
          <path class="cls-3" d="M3.7,66.9s6.63,1.16,10.69,6,4.2,11.44,4.2,11.44-6.8-1-10.86-5.87S3.7,66.9,3.7,66.9Z"/>
        </g>
        <g>
          <path class="cls-3" d="M29.12,51.87s1.06,6.21-2,11.33-8.78,7.3-8.78,7.3-1.25-6.32,1.78-11.44S29.12,51.87,29.12,51.87Z"/>
          <path class="cls-3" d="M3.86,55.29s5.89,1,9.51,5.35a18.29,18.29,0,0,1,3.74,10.19s-6-.9-9.67-5.23S3.86,55.29,3.86,55.29Z"/>
        </g>
        <g>
          <path class="cls-3" d="M27.05,40.87s1,5.93-1.87,10.81a18.42,18.42,0,0,1-8.38,7s-1.18-6,1.7-10.91S27.05,40.87,27.05,40.87Z"/>
          <path class="cls-3" d="M3,44.14s5.62,1,9.07,5.1A17.47,17.47,0,0,1,15.61,59s-5.77-.86-9.22-5S3,44.14,3,44.14Z"/>
        </g>
        <path class="cls-4" d="M24.6,135c1,3.12,1.46,26.25-13.92,41.88"/>
        <rect class="cls-3" x="37.3" y="102.73" width="9.85" height="1.1" rx="0.5" transform="translate(-68.18 87.17) rotate(-59.46)"/>
        <rect class="cls-3" x="-0.03" y="109.58" width="9.85" height="1.1" rx="0.5" transform="translate(-64.13 196.07) rotate(-138.69)"/>
        <rect class="cls-3" x="33.71" y="89.15" width="8.38" height="0.93" rx="0.47" transform="translate(-58.54 76.73) rotate(-59.46)"/>
        <rect class="cls-3" x="32.13" y="74.44" width="7.65" height="0.85" rx="0.43" transform="translate(-46.8 67.79) rotate(-59.46)"/>
        <rect class="cls-3" x="28.85" y="62.32" width="7.65" height="0.87" rx="0.44" transform="matrix(0.51, -0.86, 0.86, 0.51, -37.98, 59.01)"/>
        <rect class="cls-3" x="26.56" y="50.37" width="6.84" height="0.78" rx="0.39" transform="translate(-28.98 50.79) rotate(-59.46)"/>
        <rect class="cls-3" x="23.18" y="40.52" width="7.35" height="0.78" rx="0.39" transform="translate(-22.03 43.25) rotate(-59.46)"/>
        <rect class="cls-3" x="8.26" y="25.73" width="7.35" height="0.78" rx="0.39" transform="translate(-12.92 40.51) rotate(-95.5)"/>
        <rect class="cls-3" x="-0.31" y="44.33" width="7.35" height="0.78" rx="0.39" transform="translate(-23.64 80.53) rotate(-138.69)"/>
        <rect class="cls-3" x="-0.02" y="54.97" width="7.35" height="0.78" rx="0.39" transform="translate(-30.15 99.35) rotate(-138.69)"/>
        <rect class="cls-3" x="-0.22" y="66.6" width="7.35" height="0.78" rx="0.39" transform="translate(-38.17 119.59) rotate(-138.69)"/>
        <rect class="cls-3" x="0.09" y="79.71" width="7.35" height="0.78" rx="0.39" transform="translate(-46.3 142.76) rotate(-138.69)"/>
        <rect class="cls-3" x="0.15" y="94.56" width="7.35" height="0.78" rx="0.39" transform="translate(-55.99 168.8) rotate(-138.69)"/>
      </g>
    </g>
  </g>
</svg>
